<svg width="16" height="17" viewBox="0 0 16 17" fill="none" xmlns="http://www.w3.org/2000/svg">
<g clip-path="url(#clip0)">
<path d="M12.748 12.7628L15.3607 10.1501C15.7849 9.70551 16.0216 9.11461 16.0216 8.50009C16.0216 7.88557 15.7849 7.29466 15.3607 6.85009L12.748 4.23742C12.5605 4.04982 12.3062 3.9444 12.0409 3.94434C11.7757 3.94427 11.5213 4.04958 11.3337 4.23709C11.1461 4.4246 11.0407 4.67895 11.0406 4.94418C11.0405 5.20942 11.1458 5.46382 11.3334 5.65142L13.1867 7.50542L1.02002 7.52075C0.754803 7.52075 0.500449 7.62611 0.312913 7.81365C0.125376 8.00118 0.0200195 8.25554 0.0200195 8.52075C0.0200195 8.78597 0.125376 9.04032 0.312913 9.22786C0.500449 9.4154 0.754803 9.52075 1.02002 9.52075L13.174 9.50542L11.3334 11.3488C11.1512 11.5374 11.0504 11.79 11.0527 12.0522C11.055 12.3144 11.1601 12.5652 11.3455 12.7506C11.5309 12.936 11.7818 13.0412 12.044 13.0434C12.3061 13.0457 12.5588 12.9449 12.7474 12.7628H12.748Z" fill="white"/>
</g>
<defs>
<clipPath id="clip0">
<rect width="16" height="16" fill="white" transform="translate(0 0.5)"/>
</clipPath>
</defs>
</svg>
