<svg width="14" height="14" viewBox="0 0 14 14" fill="none" xmlns="http://www.w3.org/2000/svg">
<path d="M1.02319 8.97654L4.60919 12.5625C4.89058 12.8438 5.27218 13.0018 5.67004 13.0017C6.0679 13.0016 6.44942 12.8434 6.73069 12.562C7.01195 12.2806 7.16991 11.899 7.16981 11.5012C7.16972 11.1033 7.01158 10.7218 6.73019 10.4405L4.29519 8.00154H12.4952C12.893 8.00154 13.2745 7.84351 13.5558 7.5622C13.8371 7.2809 13.9952 6.89937 13.9952 6.50154C13.9952 6.10372 13.8371 5.72219 13.5558 5.44088C13.2745 5.15958 12.893 5.00154 12.4952 5.00154H4.29519L6.73419 2.56254C7.01558 2.28075 7.17351 1.89871 7.17323 1.50048C7.17295 1.10225 7.01448 0.720436 6.73269 0.439042C6.45089 0.157647 6.06886 -0.000280926 5.67063 3.75148e-07C5.27239 0.000281677 4.89058 0.158749 4.60919 0.440542L1.02319 4.02654C0.367954 4.68358 0 5.57363 0 6.50154C0 7.42946 0.367954 8.31951 1.02319 8.97654Z" fill="#374957"/>
</svg>
