<svg width="24" height="24" viewBox="0 0 24 24" fill="none" xmlns="http://www.w3.org/2000/svg">
<rect x="1" y="1" width="22" height="22" rx="4" stroke="#159CE4" stroke-width="2"/>
<path d="M10.1067 17.9102C9.79427 17.9104 9.48493 17.8486 9.19655 17.7285C8.90818 17.6083 8.6465 17.4322 8.42668 17.2102L5.43968 14.2282C5.30029 14.0889 5.18971 13.9235 5.11427 13.7414C5.03883 13.5594 5 13.3642 5 13.1672C5 12.9701 5.03883 12.775 5.11427 12.5929C5.18971 12.4109 5.30029 12.2455 5.43968 12.1062C5.72097 11.825 6.10243 11.667 6.50018 11.667C6.89793 11.667 7.27939 11.825 7.56068 12.1062L10.1067 14.6512L17.3187 7.43918C17.6 7.15797 17.9814 7 18.3792 7C18.7769 7 19.1584 7.15797 19.4397 7.43918C19.5791 7.57848 19.6896 7.74388 19.7651 7.92593C19.8405 8.10798 19.8794 8.30312 19.8794 8.50018C19.8794 8.69724 19.8405 8.89238 19.7651 9.07443C19.6896 9.25648 19.5791 9.42188 19.4397 9.56118L11.7857 17.2152C11.5656 17.4362 11.3039 17.6115 11.0158 17.7308C10.7276 17.8501 10.4186 17.911 10.1067 17.9102Z" fill="#159CE4"/>
</svg>
