<svg width="24" height="22" viewBox="0 0 24 22" fill="none" xmlns="http://www.w3.org/2000/svg">
<path d="M23.946 9.71945L22.889 4.71945C22.624 3.48763 21.9459 2.38339 20.9672 1.58984C19.9885 0.796292 18.768 0.361105 17.508 0.356445H5.5C4.04171 0.358298 2.64368 0.938493 1.61261 1.96976C0.581528 3.00102 0.00158767 4.39915 0 5.85745L0 10.8574C0.00158817 12.3156 0.581561 13.7137 1.61267 14.7448C2.64377 15.7759 4.0418 16.3559 5.5 16.3574H7.581L9.094 19.3204C9.43543 19.9859 9.95607 20.5426 10.5971 20.9278C11.2382 21.313 11.9742 21.5113 12.722 21.5004C13.2975 21.5012 13.8662 21.3762 14.3883 21.1343C14.9105 20.8923 15.3735 20.5392 15.7449 20.0997C16.1164 19.6601 16.3874 19.1447 16.5388 18.5895C16.6903 18.0343 16.7187 17.4527 16.622 16.8854L16.532 16.3574H18.57C19.3889 16.3574 20.1974 16.1746 20.9365 15.8223C21.6757 15.4699 22.3269 14.957 22.8425 14.3209C23.3582 13.6848 23.7253 12.9416 23.9171 12.1455C24.1088 11.3494 24.1204 10.5206 23.951 9.71945H23.946ZM3 10.8574V5.85745C3 5.1944 3.26339 4.55852 3.73223 4.08968C4.20107 3.62084 4.83696 3.35745 5.5 3.35745H7V13.3574H5.5C4.83696 13.3574 4.20107 13.0941 3.73223 12.6252C3.26339 12.1564 3 11.5205 3 10.8574ZM20.507 12.4324C20.273 12.722 19.9771 12.9554 19.641 13.1155C19.305 13.2755 18.9373 13.3582 18.565 13.3574H12.973L13.66 17.3894C13.6843 17.5259 13.678 17.666 13.6415 17.7997C13.605 17.9334 13.5393 18.0573 13.449 18.1624C13.353 18.2738 13.2331 18.3621 13.0982 18.4206C12.9633 18.4791 12.8169 18.5064 12.67 18.5004C12.4844 18.5024 12.3019 18.4526 12.1429 18.3567C11.9839 18.2608 11.8548 18.1226 11.77 17.9574L10 14.5004V3.35745H17.508C18.0807 3.35914 18.6356 3.5568 19.0804 3.91755C19.5252 4.27831 19.8331 4.78043 19.953 5.34045L21.011 10.3404C21.0888 10.7046 21.0839 11.0816 20.9967 11.4437C20.9094 11.8058 20.7421 12.1436 20.507 12.4324Z" fill="#26E415"/>
</svg>
