<svg width="24" height="25" viewBox="0 0 24 25" fill="none" xmlns="http://www.w3.org/2000/svg">
<g clip-path="url(#clip0)">
<path d="M18.5 1.1377H5.5C4.0418 1.13928 2.64377 1.71926 1.61267 2.75036C0.581561 3.78147 0.00158817 5.17949 0 6.6377L0 17.6377C0.00158817 19.0959 0.581561 20.4939 1.61267 21.525C2.64377 22.5561 4.0418 23.1361 5.5 23.1377H18.5C19.9582 23.1361 21.3562 22.5561 22.3873 21.525C23.4184 20.4939 23.9984 19.0959 24 17.6377V6.6377C23.9984 5.17949 23.4184 3.78147 22.3873 2.75036C21.3562 1.71926 19.9582 1.13928 18.5 1.1377ZM18.5 4.1377C19.1065 4.13971 19.6911 4.36424 20.143 4.7687L13.643 11.2687C13.2015 11.6904 12.6145 11.9257 12.004 11.9257C11.3935 11.9257 10.8065 11.6904 10.365 11.2687L3.865 4.7687C4.31485 4.36607 4.8963 4.14167 5.5 4.1377H18.5ZM18.5 20.1377H5.5C4.83696 20.1377 4.20107 19.8743 3.73223 19.4055C3.26339 18.9366 3 18.3007 3 17.6377V8.1547L8.239 13.3937C8.73276 13.8877 9.319 14.2795 9.96424 14.5469C10.6095 14.8142 11.3011 14.9518 11.9995 14.9518C12.6979 14.9518 13.3895 14.8142 14.0348 14.5469C14.68 14.2795 15.2662 13.8877 15.76 13.3937L21 8.1547V17.6377C21 18.3007 20.7366 18.9366 20.2678 19.4055C19.7989 19.8743 19.163 20.1377 18.5 20.1377Z" fill="#EAF1FF"/>
</g>
<defs>
<clipPath id="clip0">
<rect width="24" height="24" fill="white" transform="translate(0 0.137695)"/>
</clipPath>
</defs>
</svg>
