<svg width="24" height="24" viewBox="0 0 24 24" fill="none" xmlns="http://www.w3.org/2000/svg">
<path d="M7.5 13C6.60998 13 5.73995 12.7361 4.99993 12.2416C4.25991 11.7471 3.68314 11.0443 3.34254 10.2221C3.00195 9.39981 2.91283 8.49501 3.08647 7.6221C3.2601 6.74918 3.68868 5.94736 4.31802 5.31802C4.94736 4.68868 5.74918 4.2601 6.62209 4.08647C7.49501 3.91283 8.39981 4.00195 9.22208 4.34254C10.0443 4.68314 10.7471 5.25991 11.2416 5.99994C11.7361 6.73996 12 7.60999 12 8.5C11.9987 9.69307 11.5241 10.8369 10.6805 11.6805C9.83689 12.5241 8.69307 12.9987 7.5 13ZM7.5 7C7.20333 7 6.91332 7.08798 6.66664 7.2528C6.41997 7.41762 6.22771 7.65189 6.11418 7.92598C6.00065 8.20007 5.97094 8.50167 6.02882 8.79264C6.0867 9.08361 6.22956 9.35088 6.43934 9.56066C6.64912 9.77044 6.91639 9.9133 7.20736 9.97118C7.49834 10.0291 7.79994 9.99935 8.07403 9.88582C8.34811 9.77229 8.58238 9.58003 8.7472 9.33336C8.91203 9.08668 9 8.79667 9 8.5C9 8.10218 8.84196 7.72065 8.56066 7.43934C8.27936 7.15804 7.89782 7 7.5 7ZM15 22.5C15 20.5109 14.2098 18.6032 12.8033 17.1967C11.3968 15.7902 9.48912 15 7.5 15C5.51088 15 3.60322 15.7902 2.1967 17.1967C0.790176 18.6032 0 20.5109 0 22.5C0 22.8978 0.158035 23.2794 0.43934 23.5607C0.720644 23.842 1.10218 24 1.5 24C1.89782 24 2.27936 23.842 2.56066 23.5607C2.84196 23.2794 3 22.8978 3 22.5C3 21.3065 3.47411 20.1619 4.31802 19.318C5.16193 18.4741 6.30653 18 7.5 18C8.69347 18 9.83807 18.4741 10.682 19.318C11.5259 20.1619 12 21.3065 12 22.5C12 22.8978 12.158 23.2794 12.4393 23.5607C12.7206 23.842 13.1022 24 13.5 24C13.8978 24 14.2794 23.842 14.5607 23.5607C14.842 23.2794 15 22.8978 15 22.5ZM24 18C24.0001 16.6724 23.6227 15.3721 22.9118 14.2509C22.2008 13.1297 21.1857 12.2337 19.9848 11.6676C18.784 11.1015 17.4469 10.8886 16.1296 11.0537C14.8122 11.2188 13.569 11.7551 12.545 12.6C12.3931 12.7254 12.2673 12.8795 12.1749 13.0535C12.0826 13.2275 12.0253 13.418 12.0066 13.6142C11.9878 13.8103 12.0079 14.0082 12.0656 14.1965C12.1233 14.3849 12.2176 14.5601 12.343 14.712C12.4684 14.8639 12.6225 14.9897 12.7965 15.0821C12.9705 15.1745 13.161 15.2317 13.3572 15.2504C13.5533 15.2692 13.7512 15.2491 13.9395 15.1914C14.1279 15.1337 14.3031 15.0394 14.455 14.914C15.1694 14.3195 16.0706 13.9958 17 14C18.0609 14 19.0783 14.4214 19.8284 15.1716C20.5786 15.9217 21 16.9391 21 18C21 18.3978 21.158 18.7794 21.4393 19.0607C21.7206 19.342 22.1022 19.5 22.5 19.5C22.8978 19.5 23.2794 19.342 23.5607 19.0607C23.842 18.7794 24 18.3978 24 18ZM17.5 9C16.61 9 15.74 8.73608 14.9999 8.24162C14.2599 7.74715 13.6831 7.04434 13.3425 6.22208C13.0019 5.39981 12.9128 4.49501 13.0865 3.6221C13.2601 2.74918 13.6887 1.94736 14.318 1.31802C14.9474 0.688685 15.7492 0.260102 16.6221 0.0864683C17.495 -0.0871652 18.3998 0.00194979 19.2221 0.342544C20.0443 0.683138 20.7471 1.25991 21.2416 1.99994C21.7361 2.73996 22 3.60999 22 4.5C21.9987 5.69307 21.5241 6.83689 20.6805 7.68052C19.8369 8.52415 18.6931 8.99868 17.5 9ZM17.5 3C17.2033 3 16.9133 3.08798 16.6666 3.2528C16.42 3.41762 16.2277 3.65189 16.1142 3.92598C16.0007 4.20007 15.9709 4.50167 16.0288 4.79264C16.0867 5.08361 16.2296 5.35088 16.4393 5.56066C16.6491 5.77044 16.9164 5.9133 17.2074 5.97118C17.4983 6.02906 17.7999 5.99935 18.074 5.88582C18.3481 5.77229 18.5824 5.58003 18.7472 5.33336C18.912 5.08668 19 4.79667 19 4.5C19 4.10218 18.842 3.72065 18.5607 3.43934C18.2794 3.15804 17.8978 3 17.5 3Z" fill="#26E415"/>
</svg>
