<svg width="24" height="26" viewBox="0 0 24 26" fill="none" xmlns="http://www.w3.org/2000/svg">
<g clip-path="url(#clip0)">
<path d="M22.9831 10.0378C22.2094 8.9113 21.2882 7.89358 20.2441 7.01177L23.0611 4.19577C23.3293 3.91181 23.4762 3.53442 23.4705 3.14386C23.4648 2.7533 23.307 2.38036 23.0306 2.10436C22.7542 1.82836 22.381 1.67106 21.9904 1.6659C21.5999 1.66075 21.2227 1.80815 20.9391 2.07677L17.6931 5.32377C15.9261 4.44079 13.9754 3.98781 12.0001 4.00177C9.81335 4.02266 7.6658 4.58484 5.74929 5.63811C3.83278 6.69138 2.20698 8.20294 1.01712 10.0378C0.396056 10.9512 0.0639648 12.0302 0.0639648 13.1348C0.0639648 14.2393 0.396056 15.3184 1.01712 16.2318C1.79088 17.3582 2.71207 18.376 3.75612 19.2578L0.939115 22.0768C0.657721 22.3582 0.499635 22.7398 0.499635 23.1378C0.499635 23.5357 0.657721 23.9174 0.939115 24.1988C1.22051 24.4802 1.60216 24.6382 2.00012 24.6382C2.39807 24.6382 2.77972 24.4802 3.06112 24.1988L6.30712 20.9518C8.07415 21.8347 10.0248 22.2877 12.0001 22.2738C14.1869 22.2529 16.3344 21.6907 18.2509 20.6374C20.1674 19.5842 21.7932 18.0726 22.9831 16.2378C23.6055 15.3237 23.9383 14.2436 23.9383 13.1378C23.9383 12.032 23.6055 10.9518 22.9831 10.0378ZM3.49112 14.5378C3.20973 14.1251 3.05922 13.6372 3.05922 13.1378C3.05922 12.6383 3.20973 12.1504 3.49112 11.7378C4.39853 10.2982 5.65343 9.1099 7.14035 8.2823C8.62726 7.4547 10.2984 7.01435 12.0001 7.00177C13.1655 6.99611 14.3224 7.19933 15.4161 7.60177L13.5621 9.45477C12.8284 9.1433 12.0184 9.05814 11.2359 9.21023C10.4535 9.36231 9.73429 9.74469 9.17067 10.3083C8.60704 10.8719 8.22466 11.5911 8.07257 12.3736C7.92049 13.156 8.00565 13.966 8.31712 14.6998L5.88012 17.1378C4.96082 16.3927 4.1559 15.5167 3.49112 14.5378ZM20.5091 14.5378C19.6017 15.9774 18.3468 17.1656 16.8599 17.9932C15.373 18.8208 13.7018 19.2612 12.0001 19.2738C10.8348 19.2794 9.6778 19.0762 8.58412 18.6738L10.4381 16.8198C11.1718 17.1312 11.9819 17.2164 12.7643 17.0643C13.5468 16.9122 14.2659 16.5298 14.8296 15.9662C15.3932 15.4026 15.7756 14.6834 15.9277 13.901C16.0797 13.1185 15.9946 12.3085 15.6831 11.5748L18.1201 9.13777C19.0394 9.88283 19.8443 10.7588 20.5091 11.7378C20.7905 12.1504 20.941 12.6383 20.941 13.1378C20.941 13.6372 20.7905 14.1251 20.5091 14.5378Z" fill="#374957"/>
</g>
<defs>
<clipPath id="clip0">
<rect width="24" height="24" fill="white" transform="translate(0 1.1377)"/>
</clipPath>
</defs>
</svg>
