<svg width="25" height="24" viewBox="0 0 25 24" fill="none" xmlns="http://www.w3.org/2000/svg">
<path d="M19 0H6C4.54188 0.00185226 3.14401 0.58191 2.11296 1.61296C1.08191 2.64401 0.501852 4.04188 0.5 5.5L0.5 14.5C0.501852 15.9581 1.08191 17.356 2.11296 18.387C3.14401 19.4181 4.54188 19.9981 6 20H7.438L11.538 23.428C11.8078 23.6535 12.1483 23.7771 12.5 23.7771C12.8517 23.7771 13.1922 23.6535 13.462 23.428L17.562 20H19C20.4581 19.9981 21.856 19.4181 22.887 18.387C23.9181 17.356 24.4981 15.9581 24.5 14.5V5.5C24.4981 4.04188 23.9181 2.64401 22.887 1.61296C21.856 0.58191 20.4581 0.00185226 19 0V0ZM21.5 14.5C21.5 15.163 21.2366 15.7989 20.7678 16.2678C20.2989 16.7366 19.663 17 19 17H17.017C16.6652 17.0002 16.3247 17.1241 16.055 17.35L12.5 20.322L8.945 17.35C8.6753 17.1241 8.33479 17.0002 7.983 17H6C5.33696 17 4.70107 16.7366 4.23223 16.2678C3.76339 15.7989 3.5 15.163 3.5 14.5V5.5C3.5 4.83696 3.76339 4.20107 4.23223 3.73223C4.70107 3.26339 5.33696 3 6 3H19C19.663 3 20.2989 3.26339 20.7678 3.73223C21.2366 4.20107 21.5 4.83696 21.5 5.5V14.5Z" fill="#4AD0EE"/>
<path d="M8 9H11C11.3978 9 11.7794 8.84196 12.0607 8.56066C12.342 8.27936 12.5 7.89782 12.5 7.5C12.5 7.10218 12.342 6.72064 12.0607 6.43934C11.7794 6.15804 11.3978 6 11 6H8C7.60218 6 7.22064 6.15804 6.93934 6.43934C6.65804 6.72064 6.5 7.10218 6.5 7.5C6.5 7.89782 6.65804 8.27936 6.93934 8.56066C7.22064 8.84196 7.60218 9 8 9Z" fill="#4AD0EE"/>
<path d="M17 11H8C7.60218 11 7.22064 11.158 6.93934 11.4393C6.65804 11.7206 6.5 12.1022 6.5 12.5C6.5 12.8978 6.65804 13.2794 6.93934 13.5607C7.22064 13.842 7.60218 14 8 14H17C17.3978 14 17.7794 13.842 18.0607 13.5607C18.342 13.2794 18.5 12.8978 18.5 12.5C18.5 12.1022 18.342 11.7206 18.0607 11.4393C17.7794 11.158 17.3978 11 17 11Z" fill="#4AD0EE"/>
</svg>
