<svg width="24" height="26" viewBox="0 0 24 26" fill="none" xmlns="http://www.w3.org/2000/svg">
<g clip-path="url(#clip0)">
<path d="M18.5 2.1377H5.5C4.0418 2.13928 2.64377 2.71926 1.61267 3.75036C0.581561 4.78147 0.00158817 6.17949 0 7.6377L0 18.6377C0.00158817 20.0959 0.581561 21.4939 1.61267 22.525C2.64377 23.5561 4.0418 24.1361 5.5 24.1377H18.5C19.9582 24.1361 21.3562 23.5561 22.3873 22.525C23.4184 21.4939 23.9984 20.0959 24 18.6377V7.6377C23.9984 6.17949 23.4184 4.78147 22.3873 3.75036C21.3562 2.71926 19.9582 2.13928 18.5 2.1377ZM18.5 5.1377C19.1065 5.13971 19.6911 5.36424 20.143 5.7687L13.643 12.2687C13.2015 12.6904 12.6145 12.9257 12.004 12.9257C11.3935 12.9257 10.8065 12.6904 10.365 12.2687L3.865 5.7687C4.31485 5.36607 4.8963 5.14167 5.5 5.1377H18.5ZM18.5 21.1377H5.5C4.83696 21.1377 4.20107 20.8743 3.73223 20.4055C3.26339 19.9366 3 19.3007 3 18.6377V9.1547L8.239 14.3937C8.73276 14.8877 9.319 15.2795 9.96424 15.5469C10.6095 15.8142 11.3011 15.9518 11.9995 15.9518C12.6979 15.9518 13.3895 15.8142 14.0348 15.5469C14.68 15.2795 15.2662 14.8877 15.76 14.3937L21 9.1547V18.6377C21 19.3007 20.7366 19.9366 20.2678 20.4055C19.7989 20.8743 19.163 21.1377 18.5 21.1377Z" fill="#EAF1FF"/>
</g>
<defs>
<clipPath id="clip0">
<rect width="24" height="24" fill="white" transform="translate(0 1.1377)"/>
</clipPath>
</defs>
</svg>
