<svg width="24" height="24" viewBox="0 0 24 24" fill="none" xmlns="http://www.w3.org/2000/svg">
<g clip-path="url(#clip0)">
<path d="M17.937 2.2699C16.9986 1.42385 15.8898 0.788799 14.6852 0.407569C13.4806 0.0263383 12.2083 -0.092215 10.954 0.0599003C9.23736 0.288471 7.62049 0.998315 6.2904 2.10733C4.9603 3.21635 3.97131 4.67924 3.43782 6.3268C2.90432 7.97437 2.84811 9.7393 3.27569 11.4175C3.70327 13.0956 4.59716 14.6185 5.854 15.8099C6.809 16.7109 7 17.9999 7 19.7789V19.9319C6.99494 21.0042 7.41546 22.0347 8.16929 22.7974C8.92312 23.56 9.9487 23.9925 11.021 23.9999H12.979C14.0513 23.9925 15.0769 23.56 15.8307 22.7974C16.5845 22.0347 17.0051 21.0042 17 19.9319V19.4089C17 17.7389 17.15 16.6999 17.942 15.9939C18.9051 15.1289 19.6754 14.0709 20.2027 12.8887C20.73 11.7064 21.0025 10.4264 21.0025 9.1319C21.0025 7.83739 20.73 6.55738 20.2027 5.37512C19.6754 4.19287 18.9051 3.13485 17.942 2.2699H17.937ZM14 19.9319C14.0059 20.2088 13.9017 20.4768 13.7103 20.677C13.5189 20.8772 13.2559 20.9933 12.979 20.9999H11.021C10.7441 20.9933 10.4811 20.8772 10.2897 20.677C10.0983 20.4768 9.99409 20.2088 10 19.9319V19.7789C10 19.5199 10 19.2599 9.986 18.9999H14.006C14.006 19.1369 14 19.2739 14 19.4089V19.9319ZM15.945 13.7549C15.2637 14.3624 14.7511 15.1358 14.457 15.9999H13.5V11.0829C13.9543 10.8214 14.332 10.4452 14.5952 9.99189C14.8585 9.53859 14.9981 9.02409 15 8.4999C15 8.10208 14.842 7.72054 14.5607 7.43924C14.2794 7.15794 13.8978 6.9999 13.5 6.9999C13.1022 6.9999 12.7206 7.15794 12.4393 7.43924C12.158 7.72054 12 8.10208 12 8.4999C12 8.10208 11.842 7.72054 11.5607 7.43924C11.2794 7.15794 10.8978 6.9999 10.5 6.9999C10.1022 6.9999 9.72064 7.15794 9.43934 7.43924C9.15803 7.72054 9 8.10208 9 8.4999C9.00193 9.02409 9.1415 9.53859 9.40475 9.99189C9.66799 10.4452 10.0457 10.8214 10.5 11.0829V15.9999H9.462C9.14233 15.1003 8.61467 14.2889 7.922 13.6319C7.21146 12.9579 6.67128 12.1247 6.34598 11.201C6.02068 10.2772 5.91958 9.28939 6.051 8.3189C6.21861 6.98235 6.82483 5.73915 7.77469 4.78404C8.72455 3.82893 9.96439 3.21588 11.3 3.0409C11.5323 3.01357 11.7661 2.99988 12 2.9999C13.4551 2.99636 14.8595 3.53424 15.94 4.5089C16.588 5.09198 17.1063 5.80473 17.4612 6.60094C17.8161 7.39715 17.9998 8.25906 18.0002 9.13079C18.0007 10.0025 17.818 10.8646 17.4639 11.6612C17.1099 12.4578 16.5924 13.1711 15.945 13.7549Z" fill="#26E415"/>
</g>
<defs>
<clipPath id="clip0">
<rect width="24" height="24" fill="white"/>
</clipPath>
</defs>
</svg>
