<svg width="24" height="24" viewBox="0 0 24 24" fill="none" xmlns="http://www.w3.org/2000/svg">
<g clip-path="url(#clip0)">
<path d="M13.4179 15.0001C14.9012 15.0001 16.3513 14.5603 17.5847 13.7362C18.818 12.912 19.7793 11.7407 20.347 10.3703C20.9146 8.99981 21.0632 7.49181 20.7738 6.03695C20.4844 4.58209 19.7701 3.24572 18.7212 2.19683C17.6723 1.14793 16.3359 0.433628 14.8811 0.144239C13.4262 -0.14515 11.9182 0.00337517 10.5478 0.571032C9.17732 1.13869 8.00598 2.09998 7.18187 3.33335C6.35776 4.56672 5.91789 6.01677 5.91789 7.50013C5.92001 9.4886 6.71086 11.395 8.11693 12.8011C9.52299 14.2072 11.4294 14.998 13.4179 15.0001ZM13.4179 3.00013C14.3079 3.00013 15.1779 3.26405 15.918 3.75852C16.658 4.25298 17.2348 4.95579 17.5753 5.77805C17.9159 6.60032 18.0051 7.50512 17.8314 8.37804C17.6578 9.25095 17.2292 10.0528 16.5999 10.6821C15.9705 11.3114 15.1687 11.74 14.2958 11.9137C13.4229 12.0873 12.5181 11.9982 11.6958 11.6576C10.8735 11.317 10.1707 10.7402 9.67628 10.0002C9.18181 9.26017 8.91789 8.39014 8.91789 7.50013C8.91789 6.30665 9.39199 5.16206 10.2359 4.31815C11.0798 3.47423 12.2244 3.00013 13.4179 3.00013ZM23.7369 14.5561C22.6831 16.0914 21.2994 17.3715 19.687 18.3029C18.0745 19.2343 16.2743 19.7933 14.4179 19.9391V21.0001H17.4999C17.8977 21.0001 18.2792 21.1582 18.5605 21.4395C18.8419 21.7208 18.9999 22.1023 18.9999 22.5001C18.9999 22.898 18.8419 23.2795 18.5605 23.5608C18.2792 23.8421 17.8977 24.0001 17.4999 24.0001H8.49989C8.10207 24.0001 7.72053 23.8421 7.43923 23.5608C7.15793 23.2795 6.99989 22.898 6.99989 22.5001C6.99989 22.1023 7.15793 21.7208 7.43923 21.4395C7.72053 21.1582 8.10207 21.0001 8.49989 21.0001H11.4179V19.8251C9.36472 19.4939 7.42677 18.6552 5.77992 17.3851C4.13307 16.115 2.82947 14.4538 1.98743 12.5521C1.14538 10.6505 0.791558 8.56871 0.958062 6.49567C1.12456 4.42263 1.80613 2.42398 2.94089 0.681129C3.04707 0.513104 3.18558 0.367856 3.34838 0.253826C3.51118 0.139796 3.69501 0.0592581 3.88921 0.0168923C4.0834 -0.0254735 4.28408 -0.0288223 4.47958 0.00704053C4.67508 0.0429033 4.8615 0.117263 5.02801 0.225797C5.19453 0.334332 5.33781 0.474877 5.44953 0.639266C5.56126 0.803655 5.6392 0.988609 5.67882 1.18338C5.71845 1.37815 5.71897 1.57886 5.68035 1.77383C5.64174 1.96881 5.56476 2.15416 5.45389 2.31913C4.05607 4.41553 3.54829 6.98136 4.04226 9.45215C4.53623 11.9229 5.99149 14.0963 8.08789 15.4941C10.1843 16.892 12.7501 17.3997 15.2209 16.9058C17.6917 16.4118 19.8651 14.9565 21.2629 12.8601C21.3745 12.6977 21.517 12.5588 21.6823 12.4515C21.8476 12.3441 22.0324 12.2703 22.2262 12.2344C22.42 12.1985 22.619 12.201 22.8118 12.242C23.0046 12.283 23.1874 12.3615 23.3499 12.4731C23.5123 12.5848 23.6512 12.7273 23.7586 12.8926C23.8659 13.0579 23.9397 13.2427 23.9756 13.4365C24.0116 13.6303 24.009 13.8293 23.968 14.022C23.927 14.2148 23.8485 14.3977 23.7369 14.5601V14.5561Z" fill="#26E415"/>
</g>
<defs>
<clipPath id="clip0">
<rect width="24" height="24" fill="white"/>
</clipPath>
</defs>
</svg>
