<svg width="24" height="24" viewBox="0 0 24 24" fill="none" xmlns="http://www.w3.org/2000/svg">
<g clip-path="url(#clip0)">
<path d="M17 12.5C17 12.8978 16.842 13.2794 16.5607 13.5607C16.2794 13.842 15.8978 14 15.5 14H8.5C8.10218 14 7.72064 13.842 7.43934 13.5607C7.15804 13.2794 7 12.8978 7 12.5C7 12.1022 7.15804 11.7207 7.43934 11.4394C7.72064 11.1581 8.10218 11 8.5 11H15.5C15.8978 11 16.2794 11.1581 16.5607 11.4394C16.842 11.7207 17 12.1022 17 12.5ZM12.5 16H8.5C8.10218 16 7.72064 16.1581 7.43934 16.4394C7.15804 16.7207 7 17.1022 7 17.5C7 17.8978 7.15804 18.2794 7.43934 18.5607C7.72064 18.842 8.10218 19 8.5 19H12.5C12.8978 19 13.2794 18.842 13.5607 18.5607C13.842 18.2794 14 17.8978 14 17.5C14 17.1022 13.842 16.7207 13.5607 16.4394C13.2794 16.1581 12.8978 16 12.5 16ZM22 8.15702V18.5C21.9984 19.9582 21.4184 21.3563 20.3873 22.3874C19.3562 23.4185 17.9582 23.9984 16.5 24H7.5C6.0418 23.9984 4.64377 23.4185 3.61267 22.3874C2.58156 21.3563 2.00159 19.9582 2 18.5V5.50002C2.00159 4.04182 2.58156 2.6438 3.61267 1.61269C4.64377 0.581583 6.0418 0.00161038 7.5 2.22109e-05H13.843C14.5656 -0.00203834 15.2814 0.139292 15.9489 0.415827C16.6165 0.692361 17.2226 1.0986 17.732 1.61102L20.389 4.26802C20.9013 4.77754 21.3075 5.38361 21.584 6.05116C21.8606 6.7187 22.0019 7.43447 22 8.15702ZM19 18.5V9.00002H15C14.4696 9.00002 13.9609 8.78931 13.5858 8.41424C13.2107 8.03916 13 7.53046 13 7.00002V3.00002H7.5C6.83696 3.00002 6.20107 3.26341 5.73223 3.73226C5.26339 4.2011 5 4.83698 5 5.50002V18.5C5 19.1631 5.26339 19.7989 5.73223 20.2678C6.20107 20.7366 6.83696 21 7.5 21H16.5C17.163 21 17.7989 20.7366 18.2678 20.2678C18.7366 19.7989 19 19.1631 19 18.5Z" fill="#26E415"/>
</g>
<defs>
<clipPath id="clip0">
<rect width="24" height="24" fill="white"/>
</clipPath>
</defs>
</svg>
