<svg width="24" height="24" viewBox="0 0 24 24" fill="none" xmlns="http://www.w3.org/2000/svg">
<g clip-path="url(#clip0)">
<path d="M23.9921 8.38309C23.9668 7.69606 23.7649 7.02714 23.4058 6.44087C23.0467 5.8546 22.5426 5.37078 21.9421 5.03609C21.9011 5.01209 14.7561 1.71409 14.7561 1.71409C13.9119 1.24917 12.9638 1.00537 12.0001 1.00537C11.0363 1.00537 10.0882 1.24917 9.24406 1.71409C9.24406 1.71409 2.10006 5.01209 2.05806 5.03609C1.43526 5.37512 0.915384 5.87579 0.553158 6.4854C0.190931 7.095 -0.000244141 7.79099 -0.000244141 8.50009C-0.000244141 9.20919 0.190931 9.90518 0.553158 10.5148C0.915384 11.1244 1.43526 11.6251 2.05806 11.9641C2.10006 11.9881 5.00006 13.3281 5.00006 13.3281V18.0551C5.00142 19.0471 5.31971 20.0127 5.9085 20.811C6.49728 21.6094 7.32575 22.1987 8.27306 22.4931C9.48404 22.8428 10.7397 23.0137 12.0001 23.0001C13.2605 23.0137 14.5161 22.8428 15.7271 22.4931C16.6744 22.1987 17.5028 21.6094 18.0916 20.811C18.6804 20.0127 18.9987 19.0471 19.0001 18.0551V13.3281L21.0001 12.4061V19.5001C21.0001 19.8979 21.1581 20.2794 21.4394 20.5607C21.7207 20.8421 22.1022 21.0001 22.5001 21.0001C22.8979 21.0001 23.2794 20.8421 23.5607 20.5607C23.842 20.2794 24.0001 19.8979 24.0001 19.5001V8.46109C24.0001 8.43409 23.9931 8.40909 23.9921 8.38309ZM16.0001 18.0551C16.0018 18.4033 15.8924 18.7429 15.6877 19.0246C15.483 19.3063 15.1938 19.5153 14.8621 19.6211C12.9872 20.1241 11.0129 20.1241 9.13806 19.6211C8.80635 19.5153 8.51708 19.3063 8.31239 19.0246C8.1077 18.7429 7.99828 18.4033 8.00006 18.0551V14.7121L9.24406 15.2861C10.0879 15.7522 11.0361 15.9967 12.0001 15.9967C12.964 15.9967 13.9123 15.7522 14.7561 15.2861L16.0001 14.7121V18.0551ZM20.4851 9.34009C20.4851 9.34009 13.3561 12.6301 13.3161 12.6541C12.915 12.8822 12.4615 13.0021 12.0001 13.0021C11.5386 13.0021 11.0852 12.8822 10.6841 12.6541C10.6441 12.6301 3.51506 9.34009 3.51506 9.34009C3.36022 9.26109 3.23023 9.14084 3.13944 8.9926C3.04865 8.84436 3.00061 8.67392 3.00061 8.50009C3.00061 8.32626 3.04865 8.15582 3.13944 8.00758C3.23023 7.85934 3.36022 7.73909 3.51506 7.66009C3.51506 7.66009 10.6441 4.37009 10.6841 4.34609C11.0852 4.11798 11.5386 3.99804 12.0001 3.99804C12.4615 3.99804 12.915 4.11798 13.3161 4.34609C13.3561 4.37009 20.4851 7.66009 20.4851 7.66009C20.6399 7.73909 20.7699 7.85934 20.8607 8.00758C20.9515 8.15582 20.9995 8.32626 20.9995 8.50009C20.9995 8.67392 20.9515 8.84436 20.8607 8.9926C20.7699 9.14084 20.6399 9.26109 20.4851 9.34009Z" fill="#26E415"/>
</g>
<defs>
<clipPath id="clip0">
<rect width="24" height="24" fill="white"/>
</clipPath>
</defs>
</svg>
