<svg width="64" height="64" viewBox="0 0 64 64" fill="none" xmlns="http://www.w3.org/2000/svg">
<g filter="url(#filter0_d)">
<path d="M27 20H24C22.9391 20 21.9217 20.4214 21.1716 21.1716C20.4214 21.9217 20 22.9391 20 24V27C20 28.0609 20.4214 29.0783 21.1716 29.8284C21.9217 30.5786 22.9391 31 24 31H27C28.0609 31 29.0783 30.5786 29.8284 29.8284C30.5786 29.0783 31 28.0609 31 27V24C31 22.9391 30.5786 21.9217 29.8284 21.1716C29.0783 20.4214 28.0609 20 27 20V20ZM29 27C29 27.5304 28.7893 28.0391 28.4142 28.4142C28.0391 28.7893 27.5304 29 27 29H24C23.4696 29 22.9609 28.7893 22.5858 28.4142C22.2107 28.0391 22 27.5304 22 27V24C22 23.4696 22.2107 22.9609 22.5858 22.5858C22.9609 22.2107 23.4696 22 24 22H27C27.5304 22 28.0391 22.2107 28.4142 22.5858C28.7893 22.9609 29 23.4696 29 24V27Z" fill="#374957" fill-opacity="0.3"/>
<path d="M40 20H37C35.9391 20 34.9217 20.4214 34.1716 21.1716C33.4214 21.9217 33 22.9391 33 24V27C33 28.0609 33.4214 29.0783 34.1716 29.8284C34.9217 30.5786 35.9391 31 37 31H40C41.0609 31 42.0783 30.5786 42.8284 29.8284C43.5786 29.0783 44 28.0609 44 27V24C44 22.9391 43.5786 21.9217 42.8284 21.1716C42.0783 20.4214 41.0609 20 40 20V20ZM42 27C42 27.5304 41.7893 28.0391 41.4142 28.4142C41.0391 28.7893 40.5304 29 40 29H37C36.4696 29 35.9609 28.7893 35.5858 28.4142C35.2107 28.0391 35 27.5304 35 27V24C35 23.4696 35.2107 22.9609 35.5858 22.5858C35.9609 22.2107 36.4696 22 37 22H40C40.5304 22 41.0391 22.2107 41.4142 22.5858C41.7893 22.9609 42 23.4696 42 24V27Z" fill="#374957" fill-opacity="0.3"/>
<path d="M27 33H24C22.9391 33 21.9217 33.4214 21.1716 34.1716C20.4214 34.9217 20 35.9391 20 37V40C20 41.0609 20.4214 42.0783 21.1716 42.8284C21.9217 43.5786 22.9391 44 24 44H27C28.0609 44 29.0783 43.5786 29.8284 42.8284C30.5786 42.0783 31 41.0609 31 40V37C31 35.9391 30.5786 34.9217 29.8284 34.1716C29.0783 33.4214 28.0609 33 27 33ZM29 40C29 40.5304 28.7893 41.0391 28.4142 41.4142C28.0391 41.7893 27.5304 42 27 42H24C23.4696 42 22.9609 41.7893 22.5858 41.4142C22.2107 41.0391 22 40.5304 22 40V37C22 36.4696 22.2107 35.9609 22.5858 35.5858C22.9609 35.2107 23.4696 35 24 35H27C27.5304 35 28.0391 35.2107 28.4142 35.5858C28.7893 35.9609 29 36.4696 29 37V40Z" fill="#374957" fill-opacity="0.3"/>
<path d="M40 33H37C35.9391 33 34.9217 33.4214 34.1716 34.1716C33.4214 34.9217 33 35.9391 33 37V40C33 41.0609 33.4214 42.0783 34.1716 42.8284C34.9217 43.5786 35.9391 44 37 44H40C41.0609 44 42.0783 43.5786 42.8284 42.8284C43.5786 42.0783 44 41.0609 44 40V37C44 35.9391 43.5786 34.9217 42.8284 34.1716C42.0783 33.4214 41.0609 33 40 33ZM42 40C42 40.5304 41.7893 41.0391 41.4142 41.4142C41.0391 41.7893 40.5304 42 40 42H37C36.4696 42 35.9609 41.7893 35.5858 41.4142C35.2107 41.0391 35 40.5304 35 40V37C35 36.4696 35.2107 35.9609 35.5858 35.5858C35.9609 35.2107 36.4696 35 37 35H40C40.5304 35 41.0391 35.2107 41.4142 35.5858C41.7893 35.9609 42 36.4696 42 37V40Z" fill="#374957" fill-opacity="0.3"/>
</g>
<defs>
<filter id="filter0_d" x="0" y="0" width="64" height="64" filterUnits="userSpaceOnUse" color-interpolation-filters="sRGB">
<feFlood flood-opacity="0" result="BackgroundImageFix"/>
<feColorMatrix in="SourceAlpha" type="matrix" values="0 0 0 0 0 0 0 0 0 0 0 0 0 0 0 0 0 0 127 0" result="hardAlpha"/>
<feOffset/>
<feGaussianBlur stdDeviation="10"/>
<feComposite in2="hardAlpha" operator="out"/>
<feColorMatrix type="matrix" values="0 0 0 0 1 0 0 0 0 1 0 0 0 0 1 0 0 0 0.5 0"/>
<feBlend mode="overlay" in2="BackgroundImageFix" result="effect1_dropShadow"/>
<feBlend mode="normal" in="SourceGraphic" in2="effect1_dropShadow" result="shape"/>
</filter>
</defs>
</svg>
