<svg width="9" height="8" viewBox="0 0 9 8" fill="none" xmlns="http://www.w3.org/2000/svg">
<path d="M7.98261 2.47695L5.77589 0.270227C5.60272 0.0971457 5.3679 -5.76767e-05 5.12307 2.56755e-08C4.87824 5.7728e-05 4.64345 0.0973716 4.47037 0.270534C4.29729 0.443697 4.20009 0.678523 4.20015 0.923354C4.20018 1.04458 4.22408 1.16462 4.2705 1.27661C4.31692 1.3886 4.38494 1.49035 4.47068 1.57605L5.96911 3.07694H0.923059C0.678248 3.07694 0.443465 3.17419 0.270358 3.3473C0.0972504 3.52041 0 3.75519 0 4C0 4.24481 0.0972504 4.47959 0.270358 4.6527C0.443465 4.82581 0.678248 4.92306 0.923059 4.92306H5.96911L4.46822 6.42395C4.29506 6.59703 4.19774 6.83181 4.19769 7.07664C4.19763 7.32148 4.29483 7.5563 4.46791 7.72946C4.64099 7.90263 4.87577 7.99994 5.1206 8C5.36544 8.00006 5.60026 7.90285 5.77343 7.72977L7.98015 5.52305C8.38369 5.11905 8.61056 4.57152 8.61102 4.00051C8.61148 3.4295 8.3855 2.8816 7.98261 2.47695Z" fill="#159CE4"/>
</svg>
