<svg width="25" height="26" viewBox="0 0 25 26" fill="none" xmlns="http://www.w3.org/2000/svg">
<g clip-path="url(#clip0)">
<path d="M19.2708 0.818848H5.72917C4.21021 0.820502 2.75393 1.42464 1.67986 2.49871C0.605793 3.57278 0.00165434 5.02905 0 6.54801L0 20.0897C0.00165434 21.6086 0.605793 23.0649 1.67986 24.139C2.75393 25.2131 4.21021 25.8172 5.72917 25.8188H19.2708C20.7898 25.8172 22.2461 25.2131 23.3201 24.139C24.3942 23.0649 24.9983 21.6086 25 20.0897V6.54801C24.9983 5.02905 24.3942 3.57278 23.3201 2.49871C22.2461 1.42464 20.7898 0.820502 19.2708 0.818848V0.818848ZM21.875 20.0897C21.875 20.7803 21.6006 21.4427 21.1123 21.9311C20.6239 22.4195 19.9615 22.6938 19.2708 22.6938H18.75V21.6522C18.75 19.9946 18.0915 18.4049 16.9194 17.2328C15.7473 16.0607 14.1576 15.4022 12.5 15.4022C10.8424 15.4022 9.25268 16.0607 8.08058 17.2328C6.90848 18.4049 6.25 19.9946 6.25 21.6522V22.6938H5.72917C5.0385 22.6938 4.37612 22.4195 3.88774 21.9311C3.39937 21.4427 3.125 20.7803 3.125 20.0897V6.54801C3.125 5.85735 3.39937 5.19497 3.88774 4.70659C4.37612 4.21821 5.0385 3.94385 5.72917 3.94385H19.2708C19.9615 3.94385 20.6239 4.21821 21.1123 4.70659C21.6006 5.19497 21.875 5.85735 21.875 6.54801V20.0897Z" fill="#EAF1FF"/>
<path d="M12.5001 13.3189C14.5136 13.3189 16.1459 11.6866 16.1459 9.67306C16.1459 7.65952 14.5136 6.02722 12.5001 6.02722C10.4865 6.02722 8.85425 7.65952 8.85425 9.67306C8.85425 11.6866 10.4865 13.3189 12.5001 13.3189Z" fill="#EAF1FF"/>
</g>
<defs>
<clipPath id="clip0">
<rect width="25" height="25" fill="white" transform="translate(0 0.818848)"/>
</clipPath>
</defs>
</svg>
