<svg width="24" height="25" viewBox="0 0 24 25" fill="none" xmlns="http://www.w3.org/2000/svg">
<g clip-path="url(#clip0)">
<path d="M11.9999 24.1377C11.7902 24.1377 11.5827 24.0938 11.3909 24.0087C10.9999 23.8377 1.90894 19.7067 1.90894 12.1377V7.38468C1.90769 6.22996 2.27044 5.10423 2.94563 4.16748C3.62081 3.23073 4.57408 2.53063 5.66994 2.16668L11.5249 0.21468C11.8334 0.112685 12.1665 0.112685 12.4749 0.21468L18.3299 2.16668C19.4257 2.53076 20.3789 3.2309 21.0541 4.16762C21.7292 5.10434 22.092 6.23 22.0909 7.38468V12.1377C22.0909 20.7557 12.8669 23.9297 12.4749 24.0607C12.3218 24.1119 12.1614 24.1379 11.9999 24.1377ZM11.9999 3.21868L6.61894 5.01268C6.121 5.17852 5.68789 5.49687 5.38098 5.9226C5.07407 6.34833 4.90892 6.85985 4.90894 7.38468V12.1377C4.90894 16.8727 10.3299 20.0897 12.0769 21.0027C13.8339 20.2697 19.0909 17.6197 19.0909 12.1377V7.38468C19.091 6.85985 18.9258 6.34833 18.6189 5.9226C18.312 5.49687 17.8789 5.17852 17.3809 5.01268L11.9999 3.21868Z" fill="#EAF1FF"/>
</g>
<defs>
<clipPath id="clip0">
<rect width="24" height="24" fill="white" transform="translate(0 0.137695)"/>
</clipPath>
</defs>
</svg>
