<svg width="17" height="26" viewBox="0 0 17 26" fill="none" xmlns="http://www.w3.org/2000/svg">
<path d="M11.1042 0.818848H5.89591C4.37695 0.820502 2.92068 1.42464 1.84661 2.49871C0.77254 3.57278 0.168402 5.02905 0.166748 6.54801V20.0897C0.168402 21.6086 0.77254 23.0649 1.84661 24.139C2.92068 25.2131 4.37695 25.8172 5.89591 25.8188H11.1042C12.6232 25.8172 14.0795 25.2131 15.1536 24.139C16.2276 23.0649 16.8318 21.6086 16.8334 20.0897V6.54801C16.8318 5.02905 16.2276 3.57278 15.1536 2.49871C14.0795 1.42464 12.6232 0.820502 11.1042 0.818848V0.818848ZM5.89591 3.94385H11.1042C11.7949 3.94385 12.4573 4.21821 12.9457 4.70659C13.434 5.19497 13.7084 5.85735 13.7084 6.54801V19.5688H3.29175V6.54801C3.29175 5.85735 3.56611 5.19497 4.05449 4.70659C4.54287 4.21821 5.20525 3.94385 5.89591 3.94385ZM8.50008 23.7355C8.22381 23.7355 7.95886 23.6258 7.76351 23.4304C7.56816 23.2351 7.45841 22.9701 7.45841 22.6938C7.45841 22.4176 7.56816 22.1526 7.76351 21.9573C7.95886 21.7619 8.22381 21.6522 8.50008 21.6522C8.77635 21.6522 9.0413 21.7619 9.23665 21.9573C9.432 22.1526 9.54175 22.4176 9.54175 22.6938C9.54175 22.9701 9.432 23.2351 9.23665 23.4304C9.0413 23.6258 8.77635 23.7355 8.50008 23.7355Z" fill="#EAF1FF"/>
</svg>
