<svg width="18" height="18" viewBox="0 0 18 18" fill="none" xmlns="http://www.w3.org/2000/svg">
<path d="M17.2943 9.19239C17.2944 8.90778 17.2384 8.62594 17.1296 8.36297C17.0207 8.10001 16.8611 7.86108 16.6598 7.65983C16.4586 7.45858 16.2196 7.29895 15.9567 7.19008C15.6937 7.08121 15.4119 7.02522 15.1273 7.02531L11.1659 7.02633L11.1669 3.06492C11.1669 2.49017 10.9386 1.93897 10.5322 1.53256C10.1257 1.12615 9.57454 0.897838 8.9998 0.897838C8.42505 0.897838 7.87385 1.12615 7.46744 1.53256C7.06103 1.93897 6.83272 2.49017 6.83272 3.06492L6.83374 7.02633L2.87233 7.02531C2.58774 7.02531 2.30594 7.08136 2.04302 7.19027C1.7801 7.29917 1.5412 7.4588 1.33997 7.66003C0.933563 8.06644 0.705246 8.61764 0.705245 9.19239C0.705246 9.76713 0.933563 10.3183 1.33997 10.7247C1.74638 11.1312 2.29758 11.3595 2.87233 11.3595L6.83374 11.3584L6.83271 15.3199C6.83271 15.8946 7.06103 16.4458 7.46744 16.8522C7.87384 17.2586 8.42505 17.4869 8.9998 17.4869C9.57454 17.4869 10.1257 17.2586 10.5322 16.8522C10.9386 16.4458 11.1669 15.8946 11.1669 15.3199L11.1659 11.3584L15.1273 11.3595C15.4119 11.3596 15.6937 11.3036 15.9567 11.1947C16.2196 11.0858 16.4586 10.9262 16.6598 10.7249C16.8611 10.5237 17.0207 10.2848 17.1296 10.0218C17.2384 9.75884 17.2944 9.477 17.2943 9.19239Z" fill="#374957"/>
</svg>
