<svg width="24" height="24" viewBox="0 0 24 24" fill="none" xmlns="http://www.w3.org/2000/svg">
<g clip-path="url(#clip0)">
<path d="M12 0C9.62663 0 7.30655 0.703788 5.33316 2.02236C3.35977 3.34094 1.8217 5.21509 0.913451 7.4078C0.00519943 9.60051 -0.232441 12.0133 0.230582 14.3411C0.693605 16.6689 1.83649 18.8071 3.51472 20.4853C5.19295 22.1635 7.33115 23.3064 9.65892 23.7694C11.9867 24.2324 14.3995 23.9948 16.5922 23.0866C18.7849 22.1783 20.6591 20.6402 21.9776 18.6668C23.2962 16.6935 24 14.3734 24 12C23.9966 8.81846 22.7312 5.76821 20.4815 3.51852C18.2318 1.26883 15.1815 0.00344108 12 0V0ZM12 21C10.22 21 8.47992 20.4722 6.99987 19.4832C5.51983 18.4943 4.36628 17.0887 3.68509 15.4442C3.0039 13.7996 2.82567 11.99 3.17294 10.2442C3.5202 8.49836 4.37737 6.89471 5.63604 5.63604C6.89472 4.37737 8.49836 3.5202 10.2442 3.17293C11.99 2.82567 13.7996 3.0039 15.4442 3.68508C17.0887 4.36627 18.4943 5.51983 19.4832 6.99987C20.4722 8.47991 21 10.22 21 12C20.9974 14.3861 20.0483 16.6738 18.361 18.361C16.6738 20.0483 14.3861 20.9974 12 21Z" fill="#26E415"/>
<path d="M12.0049 19C12.8333 19 13.5049 18.3284 13.5049 17.5C13.5049 16.6716 12.8333 16 12.0049 16C11.1765 16 10.5049 16.6716 10.5049 17.5C10.5049 18.3284 11.1765 19 12.0049 19Z" fill="#26E415"/>
<path d="M12.7571 4.98662C12.1454 4.87696 11.5171 4.90277 10.9165 5.06223C10.3159 5.2217 9.75751 5.51094 9.28078 5.90958C8.80406 6.30822 8.42055 6.80656 8.15729 7.36947C7.89403 7.93239 7.75742 8.54619 7.75708 9.16762C7.75708 9.56545 7.91512 9.94698 8.19642 10.2283C8.47772 10.5096 8.85926 10.6676 9.25708 10.6676C9.6549 10.6676 10.0364 10.5096 10.3177 10.2283C10.599 9.94698 10.7571 9.56545 10.7571 9.16762C10.758 8.94756 10.8171 8.73165 10.9283 8.54178C11.0396 8.35191 11.1991 8.19485 11.3906 8.0865C11.5822 7.97816 11.799 7.92239 12.019 7.92485C12.2391 7.92732 12.4546 7.98792 12.6437 8.10053C12.8327 8.21313 12.9887 8.37373 13.0957 8.56604C13.2026 8.75835 13.2569 8.97553 13.2529 9.19556C13.2488 9.41559 13.1867 9.63065 13.0728 9.81892C12.9588 10.0072 12.7971 10.162 12.6041 10.2676C11.9853 10.5268 11.4595 10.9671 11.0957 11.5308C10.7319 12.0945 10.5473 12.755 10.5661 13.4256C10.5661 13.8234 10.7241 14.205 11.0054 14.4863C11.2867 14.7676 11.6683 14.9256 12.0661 14.9256C12.4639 14.9256 12.8454 14.7676 13.1267 14.4863C13.408 14.205 13.5661 13.8234 13.5661 13.4256C13.5652 13.3526 13.5705 13.2797 13.5821 13.2076C13.7221 13.0798 13.881 12.9742 14.0531 12.8946C14.8213 12.4712 15.4395 11.8204 15.823 11.0315C16.2065 10.2426 16.3364 9.35436 16.1948 8.48871C16.0532 7.62306 15.6471 6.82246 15.0323 6.19684C14.4175 5.57123 13.6241 5.15126 12.7611 4.99462L12.7571 4.98662Z" fill="#26E415"/>
</g>
<defs>
<clipPath id="clip0">
<rect width="24" height="24" fill="white"/>
</clipPath>
</defs>
</svg>
