<svg width="20" height="20" viewBox="0 0 20 20" fill="none" xmlns="http://www.w3.org/2000/svg">
<path d="M19.6351 17.871L15.764 13.9983C17.0901 12.2261 17.6957 10.0174 17.4588 7.81676C17.2219 5.6161 16.1601 3.58687 14.4872 2.13757C12.8143 0.688268 10.6545 -0.0735043 8.44254 0.00559686C6.23058 0.084698 4.1307 0.9988 2.5656 2.56389C1.00051 4.12899 0.086407 6.22887 0.00730584 8.44083C-0.0717953 10.6528 0.689977 12.8126 2.13928 14.4855C3.58858 16.1584 5.6178 17.2202 7.81847 17.4571C10.0191 17.694 12.2278 17.0884 14 15.7623L17.8727 19.635C18.1064 19.8687 18.4234 20 18.7539 20C19.0844 20 19.4013 19.8687 19.6351 19.635C19.8688 19.4013 20 19.0843 20 18.7538C20 18.4233 19.8688 18.1063 19.6351 17.8726V17.871ZM8.78765 15.0148C7.55569 15.0148 6.3514 14.6495 5.32706 13.9651C4.30273 13.2806 3.50435 12.3078 3.0329 11.1696C2.56145 10.0315 2.4381 8.77903 2.67844 7.57074C2.91879 6.36246 3.51203 5.25257 4.38316 4.38145C5.25428 3.51032 6.36416 2.91708 7.57245 2.67674C8.78074 2.43639 10.0332 2.55975 11.1713 3.0312C12.3095 3.50265 13.2823 4.30102 13.9668 5.32535C14.6512 6.34969 15.0165 7.55398 15.0165 8.78594C15.0148 10.4374 14.358 12.0207 13.1902 13.1885C12.0224 14.3562 10.4391 15.0131 8.78765 15.0148Z" fill="#B4D1D7"/>
</svg>
