<svg width="25" height="25" viewBox="0 0 25 25" fill="none" xmlns="http://www.w3.org/2000/svg">
<path d="M19.8329 15.3049C19.0768 15.3056 18.3323 15.4901 17.6634 15.8428C16.9946 16.1954 16.4216 16.7054 15.9939 17.3289L9.48493 14.3899C9.94724 13.2736 9.94904 12.0196 9.48993 10.9019L15.9899 7.94794C16.6238 8.8647 17.5653 9.5239 18.6435 9.80599C19.7218 10.0881 20.8655 9.97435 21.8671 9.48544C22.8687 8.99654 23.6619 8.16484 24.1028 7.14121C24.5437 6.11758 24.6031 4.96981 24.2703 3.90612C23.9375 2.84242 23.2344 1.93324 22.2887 1.3435C21.3429 0.753757 20.2171 0.522515 19.1155 0.691719C18.0138 0.860922 17.0093 1.41936 16.2842 2.26575C15.559 3.11213 15.1612 4.19039 15.1629 5.30494C15.1672 5.56874 15.1939 5.8317 15.2429 6.09094L8.33293 9.23094C7.66927 8.60916 6.83844 8.19478 5.94251 8.0387C5.04657 7.88263 4.12456 7.99166 3.28974 8.3524C2.45492 8.71314 1.74366 9.30988 1.24333 10.0693C0.743 10.8287 0.475398 11.7178 0.4734 12.6272C0.471402 13.5366 0.735094 14.4268 1.23208 15.1884C1.72907 15.9501 2.4377 16.5499 3.27093 16.9143C4.10416 17.2787 5.02568 17.3918 5.92229 17.2397C6.8189 17.0875 7.65155 16.6768 8.31793 16.0579L15.2459 19.1859C15.1978 19.445 15.1714 19.7075 15.1669 19.9709C15.1667 20.8941 15.4403 21.7965 15.953 22.5642C16.4658 23.3318 17.1947 23.9301 18.0475 24.2835C18.9003 24.6369 19.8388 24.7294 20.7442 24.5493C21.6496 24.3693 22.4812 23.9248 23.134 23.272C23.7868 22.6193 24.2313 21.7876 24.4113 20.8822C24.5914 19.9768 24.4988 19.0383 24.1455 18.1855C23.7921 17.3327 23.1938 16.6038 22.4262 16.0911C21.6585 15.5783 20.7561 15.3047 19.8329 15.3049ZM19.8329 2.63794C20.3605 2.63774 20.8762 2.79399 21.3149 3.08693C21.7536 3.37986 22.0956 3.79632 22.2976 4.28363C22.4996 4.77095 22.5526 5.30722 22.4498 5.82464C22.347 6.34205 22.0931 6.81736 21.7201 7.19044C21.3472 7.56353 20.872 7.81764 20.3546 7.92062C19.8372 8.02361 19.3009 7.97085 18.8135 7.76902C18.3262 7.5672 17.9096 7.22536 17.6165 6.78675C17.3234 6.34815 17.1669 5.83247 17.1669 5.30494C17.1675 4.59795 17.4485 3.92004 17.9483 3.42003C18.4481 2.92001 19.1259 2.63874 19.8329 2.63794ZM5.16693 15.3049C4.63941 15.3051 4.12367 15.1489 3.68495 14.856C3.24624 14.563 2.90425 14.1466 2.70223 13.6593C2.50022 13.1719 2.44726 12.6357 2.55006 12.1182C2.65285 11.6008 2.90678 11.1255 3.27973 10.7524C3.65267 10.3794 4.12788 10.1252 4.64526 10.0223C5.16263 9.91927 5.69893 9.97203 6.18632 10.1739C6.67371 10.3757 7.09029 10.7175 7.38339 11.1561C7.67649 11.5947 7.83293 12.1104 7.83293 12.6379C7.83214 13.3449 7.55103 14.0226 7.05126 14.5226C6.55149 15.0225 5.87385 15.3039 5.16693 15.3049ZM19.8329 22.6379C19.3055 22.6379 18.7898 22.4815 18.3512 22.1885C17.9126 21.8954 17.5708 21.4789 17.3689 20.9916C17.1671 20.5042 17.1143 19.968 17.2172 19.4506C17.3201 18.9333 17.5741 18.4581 17.9471 18.0851C18.3201 17.7121 18.7953 17.4581 19.3126 17.3552C19.83 17.2523 20.3662 17.3051 20.8535 17.507C21.3409 17.7088 21.7574 18.0507 22.0505 18.4892C22.3435 18.9278 22.4999 19.4435 22.4999 19.9709C22.4994 20.6781 22.2182 21.3562 21.7182 21.8562C21.2182 22.3563 20.5401 22.6374 19.8329 22.6379Z" fill="white"/>
</svg>
