<svg width="24" height="24" viewBox="0 0 24 24" fill="none" xmlns="http://www.w3.org/2000/svg">
<g clip-path="url(#clip0)">
<path d="M5.5 0C4.41221 0 3.34884 0.322569 2.44437 0.926917C1.5399 1.53126 0.834947 2.39025 0.418665 3.39524C0.00238308 4.40023 -0.106535 5.5061 0.105683 6.573C0.317902 7.63989 0.841726 8.6199 1.61092 9.38909C2.3801 10.1583 3.36011 10.6821 4.42701 10.8943C5.4939 11.1065 6.59977 10.9976 7.60476 10.5813C8.60975 10.1651 9.46874 9.46011 10.0731 8.55564C10.6774 7.65117 11 6.5878 11 5.5C10.9984 4.0418 10.4184 2.64377 9.38734 1.61267C8.35623 0.581561 6.95821 0.00158817 5.5 0V0ZM5.5 8C5.00555 8 4.5222 7.85338 4.11108 7.57867C3.69995 7.30397 3.37952 6.91352 3.1903 6.45671C3.00108 5.99989 2.95158 5.49723 3.04804 5.01227C3.1445 4.52732 3.3826 4.08186 3.73224 3.73223C4.08187 3.3826 4.52732 3.1445 5.01228 3.04804C5.49723 2.95157 5.9999 3.00108 6.45671 3.1903C6.91353 3.37952 7.30397 3.69995 7.57868 4.11107C7.85338 4.5222 8 5.00555 8 5.5C8 6.16304 7.73661 6.79893 7.26777 7.26777C6.79893 7.73661 6.16304 8 5.5 8Z" fill="#B4D1D7"/>
<path d="M5.5 13C4.41221 13 3.34884 13.3226 2.44437 13.9269C1.5399 14.5313 0.834947 15.3902 0.418665 16.3952C0.00238308 17.4002 -0.106535 18.5061 0.105683 19.573C0.317902 20.6399 0.841726 21.6199 1.61092 22.3891C2.3801 23.1583 3.36011 23.6821 4.42701 23.8943C5.4939 24.1065 6.59977 23.9976 7.60476 23.5813C8.60975 23.1651 9.46874 22.4601 10.0731 21.5556C10.6774 20.6512 11 19.5878 11 18.5C10.9984 17.0418 10.4184 15.6438 9.38734 14.6127C8.35623 13.5816 6.95821 13.0016 5.5 13ZM5.5 21C5.00555 21 4.5222 20.8534 4.11108 20.5787C3.69995 20.304 3.37952 19.9135 3.1903 19.4567C3.00108 18.9999 2.95158 18.4972 3.04804 18.0123C3.1445 17.5273 3.3826 17.0819 3.73224 16.7322C4.08187 16.3826 4.52732 16.1445 5.01228 16.048C5.49723 15.9516 5.9999 16.0011 6.45671 16.1903C6.91353 16.3795 7.30397 16.7 7.57868 17.1111C7.85338 17.5222 8 18.0055 8 18.5C8 19.163 7.73661 19.7989 7.26777 20.2678C6.79893 20.7366 6.16304 21 5.5 21Z" fill="#B4D1D7"/>
<path d="M22.5861 18.4138H20.5001V5.58579H22.5861C22.7838 5.58574 22.9771 5.52707 23.1416 5.41719C23.306 5.3073 23.4341 5.15114 23.5098 4.96844C23.5854 4.78574 23.6052 4.58471 23.5667 4.39075C23.5281 4.1968 23.4329 4.01864 23.2931 3.87879L19.7071 0.292786C19.5196 0.105315 19.2653 0 19.0001 0C18.7349 0 18.4806 0.105315 18.2931 0.292786L14.7071 3.87879C14.5673 4.01864 14.4721 4.1968 14.4335 4.39075C14.3949 4.58471 14.4147 4.78574 14.4904 4.96844C14.5661 5.15114 14.6942 5.3073 14.8586 5.41719C15.023 5.52707 15.2163 5.58574 15.4141 5.58579H17.5001V18.4138H15.4141C15.2163 18.4138 15.023 18.4725 14.8586 18.5824C14.6942 18.6923 14.5661 18.8484 14.4904 19.0311C14.4147 19.2138 14.3949 19.4149 14.4335 19.6088C14.4721 19.8028 14.5673 19.9809 14.7071 20.1208L18.2931 23.7068C18.4806 23.8943 18.7349 23.9996 19.0001 23.9996C19.2653 23.9996 19.5196 23.8943 19.7071 23.7068L23.2931 20.1208C23.4329 19.9809 23.5281 19.8028 23.5667 19.6088C23.6052 19.4149 23.5854 19.2138 23.5098 19.0311C23.4341 18.8484 23.306 18.6923 23.1416 18.5824C22.9771 18.4725 22.7838 18.4138 22.5861 18.4138Z" fill="#B4D1D7"/>
</g>
<defs>
<clipPath id="clip0">
<rect width="24" height="24" fill="white"/>
</clipPath>
</defs>
</svg>
