<svg width="24" height="24" viewBox="0 0 24 24" fill="none" xmlns="http://www.w3.org/2000/svg">
<g clip-path="url(#clip0)">
<path d="M18.5 5.00024H17V3.50024C17 2.57199 16.6313 1.68175 15.9749 1.02537C15.3185 0.368993 14.4283 0.000244141 13.5 0.000244141H10.5C9.57174 0.000244141 8.6815 0.368993 8.02513 1.02537C7.36875 1.68175 7 2.57199 7 3.50024V5.00024H5.5C4.0418 5.00183 2.64377 5.5818 1.61267 6.61291C0.581561 7.64402 0.00158817 9.04204 0 10.5002L0 18.5002C0.00158817 19.9584 0.581561 21.3565 1.61267 22.3876C2.64377 23.4187 4.0418 23.9987 5.5 24.0002H18.5C19.9582 23.9987 21.3562 23.4187 22.3873 22.3876C23.4184 21.3565 23.9984 19.9584 24 18.5002V10.5002C23.9984 9.04204 23.4184 7.64402 22.3873 6.61291C21.3562 5.5818 19.9582 5.00183 18.5 5.00024ZM10 3.50024C10 3.36764 10.0527 3.24046 10.1464 3.14669C10.2402 3.05292 10.3674 3.00024 10.5 3.00024H13.5C13.6326 3.00024 13.7598 3.05292 13.8536 3.14669C13.9473 3.24046 14 3.36764 14 3.50024V5.00024H10V3.50024ZM21 18.5002C21 19.1633 20.7366 19.7992 20.2678 20.268C19.7989 20.7369 19.163 21.0002 18.5 21.0002H5.5C4.83696 21.0002 4.20107 20.7369 3.73223 20.268C3.26339 19.7992 3 19.1633 3 18.5002V10.5002C3 9.8372 3.26339 9.20132 3.73223 8.73248C4.20107 8.26364 4.83696 8.00024 5.5 8.00024H18.5C19.163 8.00024 19.7989 8.26364 20.2678 8.73248C20.7366 9.20132 21 9.8372 21 10.5002V18.5002ZM16.5 14.5002C16.5 14.8981 16.342 15.2796 16.0607 15.5609C15.7794 15.8422 15.3978 16.0002 15 16.0002H13.5V17.5002C13.5 17.8981 13.342 18.2796 13.0607 18.5609C12.7794 18.8422 12.3978 19.0002 12 19.0002C11.6022 19.0002 11.2206 18.8422 10.9393 18.5609C10.658 18.2796 10.5 17.8981 10.5 17.5002V16.0002H9C8.60218 16.0002 8.22064 15.8422 7.93934 15.5609C7.65804 15.2796 7.5 14.8981 7.5 14.5002C7.5 14.1024 7.65804 13.7209 7.93934 13.4396C8.22064 13.1583 8.60218 13.0002 9 13.0002H10.5V11.5002C10.5 11.1024 10.658 10.7209 10.9393 10.4396C11.2206 10.1583 11.6022 10.0002 12 10.0002C12.3978 10.0002 12.7794 10.1583 13.0607 10.4396C13.342 10.7209 13.5 11.1024 13.5 11.5002V13.0002H15C15.3978 13.0002 15.7794 13.1583 16.0607 13.4396C16.342 13.7209 16.5 14.1024 16.5 14.5002Z" fill="#EAF1FF"/>
</g>
<defs>
<clipPath id="clip0">
<rect width="24" height="24" fill="white" transform="translate(0 0.000244141)"/>
</clipPath>
</defs>
</svg>
