<svg width="23" height="24" viewBox="0 0 23 24" fill="none" xmlns="http://www.w3.org/2000/svg">
<path d="M16.2731 2.89997C15.5261 2.26597 14.7431 1.59997 13.9461 0.875973C13.5831 0.544853 13.1517 0.297539 12.6826 0.151522C12.2134 0.00550532 11.7179 -0.035648 11.2311 0.0309728C10.7576 0.0929051 10.3034 0.257987 9.90068 0.514573C9.49792 0.771158 9.15636 1.113 8.90012 1.51597C7.95013 3.07652 7.23386 4.76781 6.77412 6.53597C6.55579 6.24567 6.27584 6.00737 5.95441 5.8382C5.63297 5.66904 5.27804 5.57321 4.91514 5.55763C4.55224 5.54204 4.19039 5.60707 3.85563 5.74806C3.52088 5.88904 3.22153 6.10246 2.97912 6.37297C1.28399 8.10653 0.345398 10.4415 0.369115 12.866C0.346577 15.3265 1.14789 17.7239 2.64548 19.6763C4.14306 21.6287 6.25081 23.024 8.63312 23.64C9.56693 23.8775 10.5266 23.9984 11.4901 24C12.9523 24.0019 14.4005 23.7156 15.7519 23.1573C17.1032 22.599 18.3313 21.7797 19.3657 20.7463C20.4001 19.7129 21.2206 18.4857 21.7802 17.1349C22.3399 15.7841 22.6276 14.3361 22.6271 12.874C22.6271 8.29997 19.6831 5.79997 16.2731 2.89997ZM16.4911 19.286C16.205 19.5061 15.9043 19.7066 15.5911 19.886C15.8781 19.2868 16.0284 18.6313 16.0311 17.967C16.0311 16.04 14.6881 13.803 13.0311 11.842C12.841 11.6195 12.6049 11.4409 12.3392 11.3184C12.0734 11.1959 11.7842 11.1325 11.4916 11.1325C11.199 11.1325 10.9098 11.1959 10.6441 11.3184C10.3783 11.4409 10.1422 11.6195 9.95212 11.842C7.60011 14.6 6.12711 17.582 7.50011 20C6.23743 19.2898 5.18832 18.254 4.4621 17.0005C3.73588 15.747 3.35913 14.3216 3.37112 12.873C3.34009 11.4542 3.81711 10.071 4.71611 8.97297C4.85745 9.20497 5.00911 9.42931 5.17111 9.64597C5.43866 10.0072 5.80619 10.2821 6.22829 10.4368C6.65038 10.5914 7.10854 10.6189 7.54611 10.516C7.99 10.417 8.39591 10.1921 8.71518 9.86821C9.03445 9.54433 9.25352 9.13523 9.34612 8.68997C9.71569 6.72728 10.4232 4.84364 11.4371 3.12297C11.4579 3.0888 11.4863 3.05992 11.5202 3.03858C11.554 3.01724 11.5923 3.00402 11.6321 2.99997C11.6851 2.99307 11.7389 2.99781 11.7899 3.01388C11.8408 3.02994 11.8877 3.05693 11.9271 3.09297C12.7511 3.84197 13.5601 4.52997 14.3321 5.18397C17.5211 7.89197 19.6271 9.68397 19.6271 12.87C19.6312 14.1085 19.3505 15.3315 18.8068 16.4443C18.263 17.5571 17.4707 18.5301 16.4911 19.288V19.286Z" fill="#FF641A"/>
</svg>
