<svg width="36" height="36" viewBox="0 0 36 36" fill="none" xmlns="http://www.w3.org/2000/svg">
<g clip-path="url(#clip0)">
<path d="M6.33326 9.24982C5.75831 9.25132 5.18877 9.13881 4.65759 8.91878C4.12642 8.69874 3.64414 8.37557 3.23867 7.96794L0.987006 5.96419C0.698085 5.7066 0.523326 5.34478 0.501174 4.95834C0.479021 4.5719 0.611289 4.19249 0.868881 3.90357C1.12647 3.61465 1.48829 3.43989 1.87473 3.41773C2.26117 3.39558 2.64059 3.52785 2.92951 3.78544L5.24096 5.84752C5.37329 5.99612 5.53462 6.11607 5.71503 6.19999C5.89545 6.2839 6.09113 6.33001 6.29003 6.33548C6.48893 6.34094 6.68684 6.30564 6.87159 6.23176C7.05634 6.15788 7.22401 6.04697 7.3643 5.90586L12.6201 0.902315C12.9027 0.65071 13.2721 0.518801 13.6502 0.534452C14.0282 0.550103 14.3854 0.712087 14.6463 0.986191C14.9071 1.2603 15.0512 1.62506 15.0481 2.00343C15.045 2.38181 14.895 2.74417 14.6297 3.01398L9.39576 7.99273C8.99292 8.39322 8.51511 8.71037 7.98962 8.92607C7.46413 9.14177 6.90129 9.25178 6.33326 9.24982ZM35.4999 6.33315C35.4999 5.94637 35.3463 5.57544 35.0728 5.30195C34.7993 5.02846 34.4284 4.87482 34.0416 4.87482H19.4583C19.0715 4.87482 18.7006 5.02846 18.4271 5.30195C18.1536 5.57544 17.9999 5.94637 17.9999 6.33315C17.9999 6.71992 18.1536 7.09086 18.4271 7.36435C18.7006 7.63784 19.0715 7.79148 19.4583 7.79148H34.0416C34.4284 7.79148 34.7993 7.63784 35.0728 7.36435C35.3463 7.09086 35.4999 6.71992 35.4999 6.33315ZM9.39576 19.6594L14.6297 14.6806C14.7758 14.5506 14.8942 14.3925 14.978 14.2157C15.0617 14.039 15.109 13.8472 15.1171 13.6517C15.1252 13.4563 15.0939 13.2613 15.025 13.0782C14.9562 12.8951 14.8513 12.7278 14.7164 12.5861C14.5816 12.4444 14.4196 12.3313 14.2402 12.2535C14.0607 12.1757 13.8675 12.1347 13.6719 12.1331C13.4763 12.1315 13.2824 12.1693 13.1017 12.2442C12.921 12.3191 12.7573 12.4295 12.6201 12.569L7.37013 17.5725C7.09251 17.838 6.7232 17.9861 6.33909 17.9861C5.95498 17.9861 5.58567 17.838 5.30805 17.5725L2.9893 15.2611C2.71425 14.9954 2.34587 14.8484 1.9635 14.8517C1.58113 14.8551 1.21537 15.0084 0.944978 15.2788C0.674592 15.5492 0.52122 15.915 0.517898 16.2974C0.514575 16.6797 0.661567 17.0481 0.927214 17.3231L3.23867 19.6346C4.05486 20.451 5.16063 20.9117 6.31502 20.9163C7.46942 20.921 8.57886 20.4692 9.40159 19.6594H9.39576ZM35.4999 17.9998C35.4999 17.613 35.3463 17.2421 35.0728 16.9686C34.7993 16.6951 34.4284 16.5415 34.0416 16.5415H19.4583C19.0715 16.5415 18.7006 16.6951 18.4271 16.9686C18.1536 17.2421 17.9999 17.613 17.9999 17.9998C17.9999 18.3866 18.1536 18.7575 18.4271 19.031C18.7006 19.3045 19.0715 19.4581 19.4583 19.4581H34.0416C34.4284 19.4581 34.7993 19.3045 35.0728 19.031C35.3463 18.7575 35.4999 18.3866 35.4999 17.9998ZM9.39576 31.3261L14.6239 26.3473C14.77 26.2173 14.8884 26.0592 14.9721 25.8824C15.0559 25.7056 15.1032 25.5138 15.1113 25.3184C15.1193 25.123 15.088 24.9279 15.0192 24.7449C14.9504 24.5618 14.8454 24.3944 14.7106 24.2527C14.5758 24.1111 14.4138 23.9979 14.2344 23.9201C14.0549 23.8423 13.8617 23.8014 13.6661 23.7998C13.4705 23.7982 13.2766 23.836 13.0959 23.9109C12.9152 23.9857 12.7514 24.0962 12.6143 24.2356L7.3643 29.2392C7.22401 29.3803 7.05634 29.4912 6.87159 29.5651C6.68684 29.639 6.48893 29.6743 6.29003 29.6688C6.09113 29.6633 5.89545 29.6172 5.71503 29.5333C5.53462 29.4494 5.37329 29.3295 5.24096 29.1809L2.92951 27.1188C2.64059 26.8612 2.26117 26.7289 1.87473 26.7511C1.48829 26.7732 1.12647 26.948 0.868881 27.2369C0.611289 27.5258 0.479021 27.9052 0.501174 28.2917C0.523326 28.6781 0.698085 29.0399 0.987006 29.2975L3.23867 31.3013C4.05486 32.1177 5.16063 32.5784 6.31502 32.583C7.46942 32.5877 8.57886 32.1359 9.40159 31.3261H9.39576ZM35.4999 29.6665C35.4999 29.2797 35.3463 28.9088 35.0728 28.6353C34.7993 28.3618 34.4284 28.2082 34.0416 28.2082H19.4583C19.0715 28.2082 18.7006 28.3618 18.4271 28.6353C18.1536 28.9088 17.9999 29.2797 17.9999 29.6665C17.9999 30.0533 18.1536 30.4242 18.4271 30.6977C18.7006 30.9712 19.0715 31.1248 19.4583 31.1248H34.0416C34.4284 31.1248 34.7993 30.9712 35.0728 30.6977C35.3463 30.4242 35.4999 30.0533 35.4999 29.6665Z" fill="white"/>
</g>
<defs>
<clipPath id="clip0">
<rect width="35" height="35" fill="white" transform="translate(0.5 0.5)"/>
</clipPath>
</defs>
</svg>
