<svg width="16" height="17" viewBox="0 0 16 17" fill="none" xmlns="http://www.w3.org/2000/svg">
<g clip-path="url(#clip0)">
<path d="M7.63449 9.66445C6.26463 9.78827 4.99197 10.4245 4.07093 11.4461C3.14988 12.4676 2.64831 13.7991 2.66649 15.1744V15.3191C2.66649 15.5843 2.77185 15.8387 2.95939 16.0262C3.14692 16.2138 3.40128 16.3191 3.66649 16.3191C3.93171 16.3191 4.18606 16.2138 4.3736 16.0262C4.56114 15.8387 4.66649 15.5843 4.66649 15.3191V15.1344C4.65197 14.2886 4.95006 13.4672 5.50363 12.8275C6.0572 12.1878 6.82734 11.7749 7.66649 11.6678C8.13 11.6218 8.598 11.6734 9.04038 11.8192C9.48276 11.965 9.88972 12.2017 10.2351 12.5143C10.5805 12.8268 10.8566 13.2081 11.0457 13.6338C11.2348 14.0595 11.3327 14.52 11.3332 14.9858V15.3191C11.3332 15.5843 11.4385 15.8387 11.6261 16.0262C11.8136 16.2138 12.0679 16.3191 12.3332 16.3191C12.5984 16.3191 12.8527 16.2138 13.0403 16.0262C13.2278 15.8387 13.3332 15.5843 13.3332 15.3191V14.9858C13.3324 14.2548 13.1815 13.5318 12.8899 12.8616C12.5983 12.1913 12.1721 11.5881 11.6379 11.0892C11.1037 10.5903 10.4727 10.2065 9.78404 9.96141C9.0954 9.71633 8.36378 9.61526 7.63449 9.66445Z" fill="#374957"/>
<path d="M8 8.31885C8.79112 8.31885 9.56448 8.08425 10.2223 7.64473C10.8801 7.2052 11.3928 6.58049 11.6955 5.84958C11.9983 5.11868 12.0775 4.31441 11.9231 3.53849C11.7688 2.76256 11.3878 2.04983 10.8284 1.49042C10.269 0.931012 9.55628 0.550049 8.78036 0.395708C8.00444 0.241367 7.20017 0.320581 6.46927 0.623331C5.73836 0.926082 5.11365 1.43877 4.67412 2.09657C4.2346 2.75437 4 3.52772 4 4.31885C4.00106 5.37939 4.42283 6.39619 5.17274 7.14611C5.92266 7.89602 6.93946 8.31779 8 8.31885ZM8 2.31885C8.39556 2.31885 8.78224 2.43615 9.11114 2.65591C9.44004 2.87567 9.69638 3.18803 9.84776 3.55348C9.99913 3.91894 10.0387 4.32107 9.96157 4.70903C9.8844 5.09699 9.69392 5.45336 9.41421 5.73306C9.13451 6.01277 8.77814 6.20325 8.39018 6.28042C8.00222 6.35759 7.60008 6.31798 7.23463 6.16661C6.86918 6.01523 6.55682 5.75889 6.33706 5.42999C6.1173 5.10109 6 4.71441 6 4.31885C6 3.78842 6.21071 3.27971 6.58579 2.90464C6.96086 2.52956 7.46957 2.31885 8 2.31885Z" fill="#374957"/>
</g>
<defs>
<clipPath id="clip0">
<rect width="16" height="16" fill="white" transform="translate(0 0.318848)"/>
</clipPath>
</defs>
</svg>
