<svg width="24" height="25" viewBox="0 0 24 25" fill="none" xmlns="http://www.w3.org/2000/svg">
<g clip-path="url(#clip0)">
<path d="M13.5 9C13.5 8.60218 13.342 8.22064 13.0607 7.93934C12.7794 7.65804 12.3978 7.5 12 7.5C11.6022 7.5 11.2206 7.65804 10.9393 7.93934C10.658 8.22064 10.5 8.60218 10.5 9V12.19C10.2454 12.4787 10.0795 12.8347 10.0223 13.2153C9.96499 13.5959 10.0188 13.9849 10.1771 14.3358C10.3355 14.6866 10.5917 14.9842 10.915 15.193C11.2384 15.4018 11.6151 15.5129 12 15.5129C12.3849 15.5129 12.7616 15.4018 13.085 15.193C13.4083 14.9842 13.6645 14.6866 13.8229 14.3358C13.9812 13.9849 14.035 13.5959 13.9777 13.2153C13.9205 12.8347 13.7546 12.4787 13.5 12.19V9Z" fill="white"/>
<path d="M22.5 6C22.8978 6 23.2794 5.84196 23.5607 5.56066C23.842 5.27936 24 4.89782 24 4.5C24 4.10218 23.842 3.72064 23.5607 3.43934C23.2794 3.15804 22.8978 3 22.5 3C21.659 3 21.5 2.841 21.5 2C21.5 1.60218 21.342 1.22064 21.0607 0.93934C20.7794 0.658035 20.3978 0.5 20 0.5C19.6022 0.5 19.2206 0.658035 18.9393 0.93934C18.658 1.22064 18.5 1.60218 18.5 2C18.4925 2.58439 18.5904 3.16535 18.789 3.715L18.171 4.4C16.7729 3.45195 15.174 2.84095 13.5 2.615V2C13.5 1.60218 13.342 1.22064 13.0607 0.93934C12.7794 0.658035 12.3978 0.5 12 0.5C11.6022 0.5 11.2206 0.658035 10.9393 0.93934C10.658 1.22064 10.5 1.60218 10.5 2V2.615C8.82596 2.84095 7.2271 3.45195 5.829 4.4L5.211 3.715C5.40965 3.16535 5.50755 2.58439 5.5 2C5.5 1.60218 5.34196 1.22064 5.06066 0.93934C4.77936 0.658035 4.39782 0.5 4 0.5C3.60218 0.5 3.22064 0.658035 2.93934 0.93934C2.65804 1.22064 2.5 1.60218 2.5 2C2.5 2.841 2.341 3 1.5 3C1.10218 3 0.720644 3.15804 0.43934 3.43934C0.158035 3.72064 0 4.10218 0 4.5C0 4.89782 0.158035 5.27936 0.43934 5.56066C0.720644 5.84196 1.10218 6 1.5 6C2.01666 6.00257 2.53054 5.92429 3.023 5.768L3.602 6.411C2.24782 8.01265 1.37977 9.96807 1.10017 12.0468C0.82058 14.1254 1.1411 16.2407 2.02394 18.1433C2.90679 20.0458 4.31516 21.6563 6.08304 22.7849C7.85091 23.9135 9.9046 24.5131 12.002 24.5131C14.0994 24.5131 16.1531 23.9135 17.921 22.7849C19.6888 21.6563 21.0972 20.0458 21.9801 18.1433C22.8629 16.2407 23.1834 14.1254 22.9038 12.0468C22.6242 9.96807 21.7562 8.01265 20.402 6.411L20.981 5.768C21.4722 5.92388 21.9847 6.00216 22.5 6ZM12 21.5C10.4177 21.5 8.87103 21.0308 7.55544 20.1518C6.23984 19.2727 5.21447 18.0233 4.60896 16.5615C4.00346 15.0997 3.84504 13.4911 4.15372 11.9393C4.4624 10.3874 5.22433 8.96197 6.34315 7.84315C7.46197 6.72433 8.88743 5.9624 10.4393 5.65372C11.9911 5.34504 13.5997 5.50346 15.0615 6.10896C16.5233 6.71447 17.7727 7.73984 18.6518 9.05544C19.5308 10.371 20 11.9177 20 13.5C19.9976 15.621 19.154 17.6544 17.6542 19.1542C16.1544 20.654 14.121 21.4976 12 21.5Z" fill="white"/>
</g>
<defs>
<clipPath id="clip0">
<rect width="24" height="24" fill="white" transform="translate(0 0.5)"/>
</clipPath>
</defs>
</svg>
